<?xml version="1.0" encoding="UTF-8"?><svg id="Calque_2" xmlns="http://www.w3.org/2000/svg" viewBox="0 0 353.68 182.09"><defs><style>.cls-1{fill:#fff;}</style></defs><g id="Calque_3"><path class="cls-1" d="M279.83,170.13c-.83,0-1.64-.3-2.29-.85-.78-.67-1.23-1.64-1.23-2.67v-9.63l1.05-21.87c.03-.55.02-1.12-.02-1.69l-1.03-13.92c0-1.65,1.12-3.04,2.69-3.42l7.46-3.77c.77-.39,1.58-.73,2.4-1.01l17.34-5.86,8.33-3.22c1.02-.16,2.05.13,2.83.8.78.67,1.23,1.64,1.23,2.67v47.11c0,1.68-1.16,3.09-2.78,3.44l-6.4,2.51-14.54,4.58-14.26,6.72-.23.04c-.18.03-.36.04-.54.04ZM279.53,119.47l1.02,13.72c.05.7.06,1.39.03,2.08l-1.05,21.79v9.56c0,.11.06.19.11.23.03.02.06.05.11.06l14.05-6.61,14.59-4.6,6.73-2.6c.15-.02.25-.15.25-.3v-47.11c0-.12-.06-.19-.11-.23-.03-.03-.08-.06-.14-.07l-7.82,3.07-17.41,5.89c-.67.23-1.34.51-1.98.83l-7.88,3.98-.25.04c-.14.02-.24.13-.25.26Z"/><path class="cls-1" d="M350.16,170.16c-.2,0-.4-.02-.59-.05l-.25-.07-14.23-4.91c-1.29-.45-2.56-1-3.76-1.65l-13.33-7.19c-1.54-.4-2.63-1.79-2.63-3.4v-47.1c0-1.04.46-2.02,1.25-2.69.79-.67,1.84-.95,2.86-.78l.31.05,6.95,4.31c.64.39,1.32.73,2.02,1l22.17,8.43c1.6.36,2.75,1.77,2.75,3.43v.12s-.91,12.58-.91,12.58c-.04.5-.05,1.02-.03,1.53l.94,25.45v7.43c0,1.04-.45,2.02-1.25,2.69-.64.54-1.44.83-2.27.83ZM318.75,105.52s-.04.03-.06.04c-.05.04-.11.11-.11.23v47.1c0,.15.11.27.25.3l.26.04,13.76,7.42c1.05.57,2.15,1.05,3.28,1.44l14.06,4.85c.07,0,.13-.04.17-.07.05-.04.11-.11.11-.23v-7.37l-.94-25.39c-.02-.63-.01-1.26.03-1.88l.9-12.49c-.01-.13-.11-.24-.25-.26l-.3-.08-22.29-8.48c-.89-.34-1.76-.77-2.57-1.27l-6.29-3.9Z"/><path class="cls-1" d="M316.9,182.09c-.58,0-1.15-.09-1.7-.27l-.1-.04-13.49-5.46c-.48-.2-.99-.36-1.5-.49l-13.03-3.32-7.47-2.48,1.01-3.05,7.42,2.46,12.86,3.28c.66.17,1.3.38,1.92.63l13.43,5.44c.46.14.96.13,1.41-.04l6.46-2.4,13.42-5.95c.69-.3,1.4-.56,2.12-.75l9.74-2.66.85,3.1-9.74,2.66c-.57.15-1.13.35-1.67.59l-13.56,6.01-6.51,2.41c-.6.22-1.24.34-1.88.34Z"/><path class="cls-1" d="M93.74,1.07c.72.05,1.27.64,1.28,1.36l.62,39.73-.61,34.1c-.01.76-.63,1.36-1.38,1.36h-18.11c-.76,0-1.39-.62-1.39-1.39v-29.2l.46-24.67h-.23l-9.17,25.28c-.2.56-.37,1.12-.52,1.69l-6.85,27.23c-.15.62-.71,1.05-1.34,1.05h-16.89c-.61,0-1.15-.4-1.33-.99L22.02,22.36h-.35l.46,24.67v29.2c0,.76-.62,1.39-1.39,1.39H2.62c-.75,0-1.36-.59-1.38-1.34L.01,40.11c-.02-.48-.02-.97,0-1.45L1.23,2.6c.03-.79.7-1.39,1.48-1.33l16.97,1.23c.57.04,1.15.03,1.72-.02l12.08-1.2c.67-.07,1.29.35,1.47,1l9.99,35.15,3.82,15.17h.23l3.82-15.17L62.88,2.09c.16-.56.65-.96,1.23-1l13.17-.94c1.35-.1,2.71-.1,4.07,0l12.38.92Z"/><path class="cls-1" d="M144.47,0c7.95,0,14.77,1.56,20.45,4.69,5.68,3.13,9.08,8.2,12.13,14.07,3.05,5.87,5.54,12.36,5.54,20.62s-1.53,15.33-4.58,21.2c-3.05,5.87-7.41,10.37-13.09,13.5-5.68,3.13-12.49,4.69-20.45,4.69s-14.69-1.56-20.45-4.69c-5.75-3.13-10.18-7.62-13.26-13.5-3.09-5.87-5.63-12.94-5.63-21.2s2.54-15.33,5.63-21.2c3.09-5.87,7.51-10.37,13.26-13.5,5.75-3.13,12.57-4.69,20.45-4.69ZM144.47,18.07c-3.17,0-5.77.79-7.82,2.38-2.05,1.58-3.59,3.92-4.63,7.01-1.04,3.09-1.56,7.07-1.56,11.93s1.48,8.26,2.52,11.39c1.04,3.13,1.63,5.97,3.68,7.55,2.05,1.58,4.65,2.37,7.82,2.37s5.68-.79,7.76-2.37c2.09-1.58,3.63-3.94,4.63-7.07s1.51-7.09,1.51-11.88-.5-8.84-1.51-11.93c-1-3.09-2.55-5.42-4.63-7.01-2.09-1.58-4.67-2.38-7.76-2.38Z"/><path class="cls-1" d="M264.48,1.16c.84,0,1.53.67,1.55,1.51l.73,24.36-.75,49.06c-.01.85-.7,1.53-1.55,1.53h-23.48c-.58,0-1.11-.32-1.38-.84l-19.47-37.39-5.81-9.96h-.23l.04,14.98.4,31.64c.01.87-.69,1.57-1.55,1.57h-17.45c-.88,0-1.58-.72-1.55-1.6l.7-24.6-.72-48.68c-.01-.87.69-1.58,1.55-1.58h23.37c.55,0,1.05.29,1.34.76l12.43,20.88c.37.62.72,1.27,1.03,1.92l6.93,14.32,4.98,10.31h.11l-.46-15.06V2.71c0-.86.7-1.55,1.55-1.55h17.67Z"/><path class="cls-1" d="M315.57,0c7.95,0,14.77,1.56,20.45,4.69,5.68,3.13,10.04,7.63,13.09,13.5,3.05,5.87,4.58,12.94,4.58,21.2s-1.53,15.33-4.58,21.2c-3.05,5.87-7.41,10.37-13.09,13.5-5.68,3.13-12.55,3.53-20.5,3.53s-14.64-.41-20.39-3.53c-5.75-3.13-10.18-7.62-13.26-13.5-3.09-5.87-4.63-12.94-4.63-21.2s2.63-14.52,5.72-20.39c3.09-5.87,6.42-11.17,12.18-14.3,5.75-3.13,12.57-4.69,20.45-4.69ZM315.57,18.07c-3.17,0-5.77.79-7.82,2.38-2.05,1.58-3.59,3.92-4.63,7.01-1.04,3.09-1.56,7.07-1.56,11.93s.52,8.75,1.56,11.88c1.04,3.13,2.59,5.48,4.63,7.07,2.05,1.58,4.65,2.37,7.82,2.37s5.68-.79,7.76-2.37c2.09-1.58,3.63-3.94,4.63-7.07s1.51-7.09,1.51-11.88-1.5-8.67-2.51-11.76c-1-3.09-1.55-5.6-3.63-7.18-2.09-1.58-4.67-2.38-7.76-2.38Z"/><path class="cls-1" d="M24.91,162.24c0,.56.46,1.02,1.02,1.02l24.22.38c.15,0,.3,0,.45,0l9.67-.38c.56,0,1.02.46,1.02,1.02v15.69c0,.56-.46,1.02-1.02,1.02l-28.99-.41-28.98.41c-.56,0-1.02-.46-1.02-1.02l-.43-13.74.79-49.33-.36-11.35c0-.56.46-1.02,1.02-1.02h21.59c.56,0,1.02.46,1.02,1.02l-.87,25.14c-.01.35-.01.7,0,1.05l.88,30.51Z"/><path class="cls-1" d="M94.87,105.34l-1.11,58.38s0,.04,0,.07l1.06,16.3c.03.48-.36.87-.84.85l-11.08-.53s-.05,0-.08,0l-10.75.54c-.45.02-.84-.34-.84-.79l-.38-56.42.37-18.42c0-.44.36-.78.8-.78h22.03c.45,0,.81.37.8.82Z"/><path class="cls-1" d="M177.02,105.41v15.92c0,.5-.43.9-.93.86l-8.92-.62s-.07,0-.1,0l-13.56.64c-.46.02-.82.4-.82.86v56.98c0,.5-.42.9-.92.86l-7.58-.49s-.06,0-.09,0l-14.17.52c-.48.02-.89-.36-.9-.84l-.79-31.44s0-.03,0-.05l.78-25.48c.01-.49-.38-.89-.87-.89h-22.8c-.48,0-.87-.39-.87-.87v-15.96c0-.49.41-.88.9-.87l19.84.77s.03,0,.05,0l50.85-.79c.48,0,.88.38.88.87Z"/><path class="cls-1" d="M235.22,105.43l.63,10.82s0,.06,0,.08l-.65,16.45c-.02.46-.39.82-.85.82h-23.12c-.47,0-.85-.38-.85-.85v-27.37c0-.47-.38-.85-.85-.85h-21.97c-.45,0-.83.36-.85.81l-.75,14.33s0,.05,0,.07l1.28,42.69s0,.03,0,.05l-.47,17.63c-.01.48.37.88.85.88h21.84c.49,0,.88-.42.85-.91l-.82-12.32s0-.07,0-.1l.84-15.51c.02-.45.4-.81.85-.81h23.13c.47,0,.85.38.85.85v27.95c0,.47.38.85.85.85h21.98c.49,0,.88-.42.85-.91l-1-14.81s0-.05,0-.07l1.04-59.8c0-.48-.38-.87-.85-.87h-21.98c-.49,0-.88.41-.85.9Z"/></g></svg>